<svg width="24" height="24" viewBox="0 0 24 24" fill="none" xmlns="http://www.w3.org/2000/svg">
<path fill-rule="evenodd" clip-rule="evenodd" d="M18.0001 9.7499C17.8598 9.60676 17.668 9.52573 17.4676 9.5249C17.2671 9.52573 17.0754 9.60676 16.9351 9.7499L12.0001 14.6999L7.05758 9.7499C6.91727 9.60676 6.72551 9.52573 6.52508 9.5249C6.32725 9.52772 6.13855 9.60859 6.00008 9.7499C5.70928 10.0424 5.70928 10.5149 6.00008 10.8074L11.4751 16.2824C11.6159 16.4244 11.8076 16.5043 12.0076 16.5043C12.2076 16.5043 12.3993 16.4244 12.5401 16.2824L18.0151 10.8074C18.3018 10.5108 18.2951 10.0383 18.0001 9.7499Z" fill="#131A35"/>
</svg>
